<mxfile host="app.diagrams.net" modified="2020-11-22T07:06:42.476Z" agent="5.0 (Macintosh; Intel Mac OS X 10_13_6) AppleWebKit/537.36 (KHTML, like Gecko) Chrome/87.0.4280.67 Safari/537.36" etag="wa_axK_HgQAgo-uXxp5N" version="13.9.8" type="github">
  <diagram id="cyc-Ayhg2EMI8vz3Uooy" name="Page-1">
    <mxGraphModel dx="1426" dy="803" grid="1" gridSize="10" guides="1" tooltips="1" connect="1" arrows="1" fold="1" page="1" pageScale="1" pageWidth="827" pageHeight="1169" math="0" shadow="0">
      <root>
        <mxCell id="0" />
        <mxCell id="1" parent="0" />
        <mxCell id="rdInM9raPqnrskgte95T-1" value="Leader" style="ellipse;whiteSpace=wrap;html=1;aspect=fixed;strokeWidth=3;" vertex="1" parent="1">
          <mxGeometry x="220" y="190" width="80" height="80" as="geometry" />
        </mxCell>
        <mxCell id="rdInM9raPqnrskgte95T-3" value="Follower" style="ellipse;whiteSpace=wrap;html=1;aspect=fixed;strokeWidth=1;" vertex="1" parent="1">
          <mxGeometry x="430" y="120" width="80" height="80" as="geometry" />
        </mxCell>
        <mxCell id="rdInM9raPqnrskgte95T-4" value="Follower" style="ellipse;whiteSpace=wrap;html=1;aspect=fixed;strokeWidth=1;" vertex="1" parent="1">
          <mxGeometry x="430" y="260" width="80" height="80" as="geometry" />
        </mxCell>
        <mxCell id="rdInM9raPqnrskgte95T-9" value="" style="endArrow=classic;startArrow=classic;html=1;exitX=1;exitY=0.5;exitDx=0;exitDy=0;" edge="1" parent="1" source="rdInM9raPqnrskgte95T-1">
          <mxGeometry width="50" height="50" relative="1" as="geometry">
            <mxPoint x="380" y="350" as="sourcePoint" />
            <mxPoint x="430" y="300" as="targetPoint" />
          </mxGeometry>
        </mxCell>
        <mxCell id="rdInM9raPqnrskgte95T-10" value="" style="endArrow=classic;startArrow=classic;html=1;entryX=0;entryY=0.5;entryDx=0;entryDy=0;exitX=1;exitY=0.5;exitDx=0;exitDy=0;" edge="1" parent="1" source="rdInM9raPqnrskgte95T-1" target="rdInM9raPqnrskgte95T-3">
          <mxGeometry width="50" height="50" relative="1" as="geometry">
            <mxPoint x="200" y="340" as="sourcePoint" />
            <mxPoint x="250" y="290" as="targetPoint" />
          </mxGeometry>
        </mxCell>
        <mxCell id="rdInM9raPqnrskgte95T-12" style="edgeStyle=none;rounded=0;orthogonalLoop=1;jettySize=auto;html=1;" edge="1" parent="1" source="rdInM9raPqnrskgte95T-11" target="rdInM9raPqnrskgte95T-1">
          <mxGeometry relative="1" as="geometry" />
        </mxCell>
        <mxCell id="rdInM9raPqnrskgte95T-11" value="Client" style="ellipse;shape=cloud;whiteSpace=wrap;html=1;strokeWidth=1;" vertex="1" parent="1">
          <mxGeometry x="20" y="195" width="90" height="70" as="geometry" />
        </mxCell>
        <mxCell id="rdInM9raPqnrskgte95T-13" value="1. 客户端请求" style="text;html=1;align=center;verticalAlign=middle;resizable=0;points=[];autosize=1;" vertex="1" parent="1">
          <mxGeometry x="110" y="210" width="90" height="20" as="geometry" />
        </mxCell>
        <mxCell id="rdInM9raPqnrskgte95T-14" value="2. 日志复制RPC" style="text;html=1;align=center;verticalAlign=middle;resizable=0;points=[];autosize=1;rotation=-30;" vertex="1" parent="1">
          <mxGeometry x="310" y="175" width="100" height="20" as="geometry" />
        </mxCell>
        <mxCell id="rdInM9raPqnrskgte95T-15" value="2. 日志复制RPC" style="text;html=1;align=center;verticalAlign=middle;resizable=0;points=[];autosize=1;rotation=30;" vertex="1" parent="1">
          <mxGeometry x="320" y="240" width="100" height="20" as="geometry" />
        </mxCell>
        <mxCell id="rdInM9raPqnrskgte95T-16" value="" style="curved=1;endArrow=classic;html=1;exitX=0;exitY=0;exitDx=0;exitDy=0;entryX=1;entryY=0;entryDx=0;entryDy=0;edgeStyle=orthogonalEdgeStyle;" edge="1" parent="1" source="rdInM9raPqnrskgte95T-1" target="rdInM9raPqnrskgte95T-1">
          <mxGeometry width="50" height="50" relative="1" as="geometry">
            <mxPoint x="390" y="420" as="sourcePoint" />
            <mxPoint x="440" y="370" as="targetPoint" />
            <Array as="points">
              <mxPoint x="260" y="90" />
            </Array>
          </mxGeometry>
        </mxCell>
        <mxCell id="rdInM9raPqnrskgte95T-17" value="3. 提交日志到状态机" style="text;html=1;align=center;verticalAlign=middle;resizable=0;points=[];autosize=1;" vertex="1" parent="1">
          <mxGeometry x="200" y="120" width="120" height="20" as="geometry" />
        </mxCell>
        <mxCell id="rdInM9raPqnrskgte95T-20" style="edgeStyle=none;rounded=0;orthogonalLoop=1;jettySize=auto;html=1;exitX=-0.025;exitY=0.675;exitDx=0;exitDy=0;exitPerimeter=0;entryX=0.96;entryY=0.7;entryDx=0;entryDy=0;entryPerimeter=0;" edge="1" parent="1" source="rdInM9raPqnrskgte95T-1" target="rdInM9raPqnrskgte95T-11">
          <mxGeometry relative="1" as="geometry">
            <mxPoint x="120" y="240" as="sourcePoint" />
            <mxPoint x="110" y="280" as="targetPoint" />
          </mxGeometry>
        </mxCell>
        <mxCell id="rdInM9raPqnrskgte95T-21" value="4. 执行返回结果" style="text;html=1;align=center;verticalAlign=middle;resizable=0;points=[];autosize=1;" vertex="1" parent="1">
          <mxGeometry x="105" y="245" width="100" height="20" as="geometry" />
        </mxCell>
        <mxCell id="rdInM9raPqnrskgte95T-23" value="" style="curved=1;endArrow=classic;html=1;edgeStyle=orthogonalEdgeStyle;entryX=1;entryY=0;entryDx=0;entryDy=0;" edge="1" parent="1" target="rdInM9raPqnrskgte95T-3">
          <mxGeometry width="50" height="50" relative="1" as="geometry">
            <mxPoint x="500" y="190" as="sourcePoint" />
            <mxPoint x="550" y="140" as="targetPoint" />
            <Array as="points">
              <mxPoint x="500" y="180" />
              <mxPoint x="550" y="180" />
              <mxPoint x="550" y="132" />
            </Array>
          </mxGeometry>
        </mxCell>
        <mxCell id="rdInM9raPqnrskgte95T-24" value="5. 提交日志到状态机" style="text;html=1;align=center;verticalAlign=middle;resizable=0;points=[];autosize=1;" vertex="1" parent="1">
          <mxGeometry x="520" y="140" width="120" height="20" as="geometry" />
        </mxCell>
        <mxCell id="rdInM9raPqnrskgte95T-28" value="" style="curved=1;endArrow=classic;html=1;edgeStyle=orthogonalEdgeStyle;entryX=1;entryY=0;entryDx=0;entryDy=0;" edge="1" parent="1">
          <mxGeometry width="50" height="50" relative="1" as="geometry">
            <mxPoint x="500" y="328.3" as="sourcePoint" />
            <mxPoint x="498.28427124746213" y="270.0157287525379" as="targetPoint" />
            <Array as="points">
              <mxPoint x="500" y="318.3" />
              <mxPoint x="550" y="318.3" />
              <mxPoint x="550" y="270.3" />
            </Array>
          </mxGeometry>
        </mxCell>
        <mxCell id="rdInM9raPqnrskgte95T-29" value="5. 提交日志到状态机" style="text;html=1;align=center;verticalAlign=middle;resizable=0;points=[];autosize=1;" vertex="1" parent="1">
          <mxGeometry x="520" y="278.3" width="120" height="20" as="geometry" />
        </mxCell>
      </root>
    </mxGraphModel>
  </diagram>
</mxfile>
